<svg xmlns="http://www.w3.org/2000/svg" width="16" height="16"><path fill="black" d="M13.33 8c0-.33-.03-.66-.09-.98l-.08-.46 1.16-.67a6.66 6.66 0 0 0-1.33-2.31l-.76.44-.41.23-.36-.3a5.33 5.33 0 0 0-1.69-.98l-.44-.16V1.47a6.66 6.66 0 0 0-2.67 0V2.8l-.44.16c-.62.22-1.2.55-1.69.98l-.36.3-1.16-.67c-.3.33-.55.68-.77 1.05l-.04.07c-.21.38-.39.78-.53 1.19l1.17.67-.09.46a5.37 5.37 0 0 0 0 1.96l.09.46-1.17.67c.14.41.32.81.53 1.19l.04.07.23.36c.16.24.34.47.54.69l1.16-.67.36.3.19.16c.45.35.95.63 1.5.82l.44.16v1.34a6.66 6.66 0 0 0 2.67 0v-1.34l.44-.16c.63-.22 1.2-.55 1.7-.98l.35-.3 1.17.67a6.67 6.67 0 0 0 1.33-2.31l-.76-.44-.4-.23.08-.46c.06-.32.1-.65.1-.98ZM7.47 6.47 5.94 8l1.53 1.53-.94.94L4.05 8l2.48-2.47.94.94ZM11.94 8l-2.47 2.47-.94-.94L10.05 8 8.53 6.47l.94-.94L11.94 8Zm2.72 0c0 .25-.01.5-.04.74l.82.48.44.25-.13.49a8 8 0 0 1-2.1 3.7l-.08.08-.36.35-.44-.25-.82-.48c-.4.3-.83.55-1.29.75v1.45l-.48.14a8 8 0 0 1-4.36 0l-.49-.14v-1.45c-.46-.2-.9-.45-1.3-.75l-.81.48-.44.25-.36-.35-.08-.08a8 8 0 0 1-1.25-1.62l-.04-.08a8 8 0 0 1-.66-1.48l-.15-.52-.12-.49.43-.25.82-.48a6.73 6.73 0 0 1 0-1.49L.12 6.53l.12-.49a8 8 0 0 1 .8-2l.05-.07.27-.44a8 8 0 0 1 .98-1.19l.08-.08.36-.35 1.26.73c.4-.3.83-.55 1.3-.75V.44L5.81.3l.53-.13a8 8 0 0 1 3.83.13l.48.14v1.45c.46.2.9.45 1.3.75l1.25-.73.36.35.08.08.37.4a8 8 0 0 1 1.73 3.3l.13.49-1.26.72c.03.25.04.5.04.75Z"/></svg>